<svg width="24" height="24" viewBox="0 0 24 24" fill="none" xmlns="http://www.w3.org/2000/svg">
  <rect width="24" height="24" rx="12" fill="#10B981" opacity="0.2"/>
  <path d="M17 9L9.5 16.5L7 14" stroke="#10B981" stroke-width="2" stroke-linecap="round" stroke-linejoin="round"/>
  <path d="M8 8L5 11V16.5C5 16.8978 5.15804 17.2794 5.43934 17.5607C5.72064 17.842 6.10218 18 6.5 18H17.5C17.8978 18 18.2794 17.842 18.5607 17.5607C18.842 17.2794 19 16.8978 19 16.5V7.5C19 7.10218 18.842 6.72064 18.5607 6.43934C18.2794 6.15804 17.8978 6 17.5 6H6.5C6.10218 6 5.72064 6.15804 5.43934 6.43934C5.15804 6.72064 5 7.10218 5 7.5V8" stroke="white" stroke-width="2" stroke-linecap="round" stroke-linejoin="round"/>
</svg>
